<svg width="173" height="113" viewBox="0 0 173 113" fill="none" xmlns="http://www.w3.org/2000/svg">
<rect x="30.1958" y="13.6019" width="108.524" height="86.7962" rx="4.33335" fill="#E4E4E4"/>
<path d="M30.1958 17.9352C30.1958 15.542 32.1359 13.6019 34.5292 13.6019H134.386C136.78 13.6019 138.72 15.542 138.72 17.9352V26.2066H30.1958V17.9352Z" fill="#9F9F9F"/>
<circle cx="36.791" cy="19.7781" r="1.73334" fill="white"/>
<circle cx="36.791" cy="19.7781" r="1.73334" fill="white"/>
<circle cx="43.2911" cy="19.7781" r="1.73334" fill="white"/>
<circle cx="43.2911" cy="19.7781" r="1.73334" fill="white"/>
<circle cx="49.7911" cy="19.7781" r="1.73334" fill="white"/>
<circle cx="49.7911" cy="19.7781" r="1.73334" fill="white"/>
<rect x="44.0201" y="33" width="78" height="15" rx="3.57514" fill="#D7D7D7"/>
<rect x="114.02" y="39" width="3" height="51" rx="1.5" transform="rotate(90 114.02 39)" fill="#BDBDBD"/>
<circle cx="50.9026" cy="40.4932" r="2.78202" fill="#BDBDBD"/>
<rect x="44.0201" y="53" width="78" height="15" rx="3.57514" fill="#D2D2D2"/>
<rect x="114.02" y="59" width="3" height="51" rx="1.5" transform="rotate(90 114.02 59)" fill="#ADADAD"/>
<circle cx="50.9026" cy="60.4932" r="2.78202" fill="#ADADAD"/>
<rect x="44.0201" y="73" width="78" height="15" rx="3.57514" fill="#C5C5C5"/>
<rect x="114.02" y="79" width="3" height="51" rx="1.5" transform="rotate(90 114.02 79)" fill="#DFDFDF"/>
<circle cx="50.9026" cy="80.4932" r="2.78202" fill="#DFDFDF"/>
<circle cx="139.353" cy="75.5" r="12.5" fill="#686868"/>
<circle cx="139.686" cy="82" r="2" fill="#F0F7FE"/>
<rect x="137.686" y="67" width="4" height="10" rx="2" fill="#F0F7FE"/>
</svg>
