<svg width="220" height="136" viewBox="0 0 220 136" fill="none" xmlns="http://www.w3.org/2000/svg">
<g opacity="0.5">
<path d="M163.709 53.361L163.294 40.9559L199.707 5.97898L176.939 46.2778L167.341 54.9075C165.965 56.1446 163.771 55.2103 163.709 53.361Z" fill="#96CAFA" stroke="white" stroke-width="0.9"/>
<path d="M198.668 2.35442L148.345 26.378C146.277 27.3651 146.114 30.2463 148.057 31.4602L161.871 40.0894C162.926 40.7479 164.293 40.6017 165.184 39.7353L197.516 8.29841L173.535 43.0523C172.379 44.7281 172.841 47.0286 174.555 48.1275L190.699 58.4767C192.471 59.6127 194.825 58.5445 195.137 56.463L202.789 5.40475C203.134 3.10354 200.767 1.35195 198.668 2.35442Z" fill="white"/>
<path opacity="0.7" d="M161.489 61.1503C145.022 85.6057 131.06 97.0969 107.3 80.8282C96.5219 73.4487 98.0443 60.1781 105.064 56.5851C112.084 52.9921 123.21 60.423 126.898 74.8584C131.581 93.1886 111.591 133.623 21.0487 150.569" stroke="#C8C8C8" stroke-width="3" stroke-linecap="round" stroke-dasharray="6 6"/>
</g>
</svg>
