<svg width="15" height="16" viewBox="0 0 15 16" fill="none" xmlns="http://www.w3.org/2000/svg">
<path d="M10.4688 2.725V1.75C10.4688 1.49375 10.2563 1.28125 10 1.28125C9.74377 1.28125 9.53127 1.49375 9.53127 1.75V2.6875H5.46877V1.75C5.46877 1.49375 5.25627 1.28125 5.00002 1.28125C4.74377 1.28125 4.53127 1.49375 4.53127 1.75V2.725C2.84377 2.88125 2.02502 3.8875 1.90002 5.38125C1.88752 5.5625 2.03752 5.7125 2.21252 5.7125H12.7875C12.9688 5.7125 13.1188 5.55625 13.1 5.38125C12.975 3.8875 12.1563 2.88125 10.4688 2.725Z" fill="#2256CB"/>
<path d="M12.5 6.65002H2.5C2.15625 6.65002 1.875 6.93127 1.875 7.27502V11.125C1.875 13 2.8125 14.25 5 14.25H10C12.1875 14.25 13.125 13 13.125 11.125V7.27502C13.125 6.93127 12.8438 6.65002 12.5 6.65002ZM5.75625 11.8813C5.69375 11.9375 5.625 11.9813 5.55 12.0125C5.475 12.0438 5.39375 12.0625 5.3125 12.0625C5.23125 12.0625 5.15 12.0438 5.075 12.0125C5 11.9813 4.93125 11.9375 4.86875 11.8813C4.75625 11.7625 4.6875 11.6 4.6875 11.4375C4.6875 11.275 4.75625 11.1125 4.86875 10.9938C4.93125 10.9375 5 10.8938 5.075 10.8625C5.225 10.8 5.4 10.8 5.55 10.8625C5.625 10.8938 5.69375 10.9375 5.75625 10.9938C5.86875 11.1125 5.9375 11.275 5.9375 11.4375C5.9375 11.6 5.86875 11.7625 5.75625 11.8813ZM5.8875 9.48752C5.85625 9.56252 5.8125 9.63127 5.75625 9.69377C5.69375 9.75002 5.625 9.79377 5.55 9.82502C5.475 9.85627 5.39375 9.87502 5.3125 9.87502C5.23125 9.87502 5.15 9.85627 5.075 9.82502C5 9.79377 4.93125 9.75002 4.86875 9.69377C4.8125 9.63127 4.76875 9.56252 4.7375 9.48752C4.70625 9.41252 4.6875 9.33127 4.6875 9.25002C4.6875 9.16877 4.70625 9.08752 4.7375 9.01252C4.76875 8.93752 4.8125 8.86877 4.86875 8.80627C4.93125 8.75002 5 8.70627 5.075 8.67502C5.225 8.61252 5.4 8.61252 5.55 8.67502C5.625 8.70627 5.69375 8.75002 5.75625 8.80627C5.8125 8.86877 5.85625 8.93752 5.8875 9.01252C5.91875 9.08752 5.9375 9.16877 5.9375 9.25002C5.9375 9.33127 5.91875 9.41252 5.8875 9.48752ZM7.94375 9.69377C7.88125 9.75002 7.8125 9.79377 7.7375 9.82502C7.6625 9.85627 7.58125 9.87502 7.5 9.87502C7.41875 9.87502 7.3375 9.85627 7.2625 9.82502C7.1875 9.79377 7.11875 9.75002 7.05625 9.69377C6.94375 9.57502 6.875 9.41252 6.875 9.25002C6.875 9.08752 6.94375 8.92502 7.05625 8.80627C7.11875 8.75002 7.1875 8.70627 7.2625 8.67502C7.4125 8.60627 7.5875 8.60627 7.7375 8.67502C7.8125 8.70627 7.88125 8.75002 7.94375 8.80627C8.05625 8.92502 8.125 9.08752 8.125 9.25002C8.125 9.41252 8.05625 9.57502 7.94375 9.69377Z" fill="#2256CB"/>
</svg>
