<svg width="16" height="16" viewBox="0 0 16 16" fill="none" xmlns="http://www.w3.org/2000/svg">
<g clip-path="url(#clip0_17919_9160)">
<path d="M15.5139 6.27923C14.4799 4.59523 12.1279 1.7699 7.99991 1.7699C3.87191 1.7699 1.51991 4.59523 0.485912 6.27923C0.166264 6.79624 -0.00305176 7.39206 -0.00305176 7.9999C-0.00305176 8.60774 0.166264 9.20356 0.485912 9.72056C1.51991 11.4046 3.87191 14.2299 7.99991 14.2299C12.1279 14.2299 14.4799 11.4046 15.5139 9.72056C15.8336 9.20356 16.0029 8.60774 16.0029 7.9999C16.0029 7.39206 15.8336 6.79624 15.5139 6.27923ZM14.3772 9.02256C13.4892 10.4666 11.4792 12.8966 7.99991 12.8966C4.52058 12.8966 2.51058 10.4666 1.62258 9.02256C1.43267 8.71526 1.33208 8.36115 1.33208 7.9999C1.33208 7.63865 1.43267 7.28453 1.62258 6.97723C2.51058 5.53323 4.52058 3.10323 7.99991 3.10323C11.4792 3.10323 13.4892 5.53056 14.3772 6.97723C14.5672 7.28453 14.6677 7.63865 14.6677 7.9999C14.6677 8.36115 14.5672 8.71526 14.3772 9.02256Z" fill="#888888"/>
<path d="M7.99984 4.6665C7.34057 4.6665 6.6961 4.862 6.14794 5.22827C5.59977 5.59454 5.17253 6.11514 4.92024 6.72423C4.66795 7.33331 4.60194 8.00354 4.73055 8.65014C4.85917 9.29674 5.17664 9.89069 5.64282 10.3569C6.10899 10.823 6.70293 11.1405 7.34954 11.2691C7.99614 11.3977 8.66636 11.3317 9.27545 11.0794C9.88454 10.8271 10.4051 10.3999 10.7714 9.85174C11.1377 9.30357 11.3332 8.65911 11.3332 7.99984C11.3321 7.11611 10.9806 6.26888 10.3557 5.64398C9.7308 5.01909 8.88357 4.66756 7.99984 4.6665ZM7.99984 9.99984C7.60428 9.99984 7.2176 9.88254 6.8887 9.66278C6.5598 9.44301 6.30345 9.13066 6.15208 8.7652C6.0007 8.39975 5.9611 7.99762 6.03827 7.60966C6.11544 7.22169 6.30592 6.86533 6.58562 6.58562C6.86533 6.30592 7.2217 6.11544 7.60966 6.03827C7.99762 5.9611 8.39975 6.0007 8.76521 6.15208C9.13066 6.30345 9.44302 6.5598 9.66278 6.8887C9.88254 7.2176 9.99984 7.60427 9.99984 7.99984C9.99984 8.53027 9.78913 9.03898 9.41405 9.41405C9.03898 9.78912 8.53027 9.99984 7.99984 9.99984Z" fill="#888888"/>
</g>
<defs>
<clipPath id="clip0_17919_9160">
<rect width="16" height="16" fill="white"/>
</clipPath>
</defs>
</svg>
