<svg width="10" height="10" viewBox="0 0 10 10" fill="none" xmlns="http://www.w3.org/2000/svg">
<g clip-path="url(#clip0_18580_306)">
<path d="M9.29953 1.84625L3.54161 7.60375C3.5029 7.64262 3.45689 7.67346 3.40623 7.6945C3.35557 7.71554 3.30126 7.72637 3.2464 7.72637C3.19155 7.72637 3.13723 7.71554 3.08657 7.6945C3.03591 7.67346 2.98991 7.64262 2.95119 7.60375L0.724527 5.375C0.685815 5.33614 0.639809 5.3053 0.58915 5.28426C0.53849 5.26321 0.484174 5.25238 0.429319 5.25238C0.374463 5.25238 0.320147 5.26321 0.269488 5.28426C0.218828 5.3053 0.172823 5.33614 0.13411 5.375C0.095245 5.41371 0.0644065 5.45972 0.0433642 5.51038C0.0223218 5.56104 0.0114899 5.61536 0.0114899 5.67021C0.0114899 5.72507 0.0223218 5.77938 0.0433642 5.83004C0.0644065 5.8807 0.095245 5.92671 0.13411 5.96542L2.36161 8.1925C2.59659 8.42704 2.91503 8.55877 3.24703 8.55877C3.57903 8.55877 3.89746 8.42704 4.13244 8.1925L9.88994 2.43625C9.92875 2.39755 9.95953 2.35157 9.98054 2.30095C10.0015 2.25033 10.0124 2.19606 10.0124 2.14125C10.0124 2.08645 10.0015 2.03218 9.98054 1.98156C9.95953 1.93094 9.92875 1.88496 9.88994 1.84625C9.85123 1.80739 9.80522 1.77655 9.75457 1.75551C9.70391 1.73446 9.64959 1.72363 9.59473 1.72363C9.53988 1.72363 9.48556 1.73446 9.4349 1.75551C9.38424 1.77655 9.33824 1.80739 9.29953 1.84625Z" fill="#078E17"/>
</g>
<defs>
<clipPath id="clip0_18580_306">
<rect width="10" height="10" fill="white"/>
</clipPath>
</defs>
</svg>
