<svg width="20" height="21" viewBox="0 0 20 21" fill="none" xmlns="http://www.w3.org/2000/svg">
<g clip-path="url(#clip0_18580_4036)">
<path d="M10.8333 20.4992C9.50766 20.4978 8.23665 19.9706 7.29926 19.0332C6.36186 18.0958 5.83466 16.8248 5.83333 15.4992C5.83333 14.1992 6.83333 12.1283 8.79333 9.3425C9.02605 9.01835 9.3326 8.75427 9.68763 8.5721C10.0427 8.38993 10.436 8.29492 10.835 8.29492C11.234 8.29492 11.6273 8.38993 11.9824 8.5721C12.3374 8.75427 12.6439 9.01835 12.8767 9.3425C14.8375 12.1283 15.8333 14.1992 15.8333 15.4992C15.832 16.8248 15.3048 18.0958 14.3674 19.0332C13.43 19.9706 12.159 20.4978 10.8333 20.4992ZM10.8333 9.95167C10.7003 9.95067 10.569 9.98218 10.451 10.0435C10.3329 10.1048 10.2316 10.194 10.1558 10.3033C7.75917 13.7025 7.5 15.0692 7.5 15.4992C7.5 16.3832 7.85119 17.2311 8.47631 17.8562C9.10143 18.4813 9.94928 18.8325 10.8333 18.8325C11.7174 18.8325 12.5652 18.4813 13.1904 17.8562C13.8155 17.2311 14.1667 16.3832 14.1667 15.4992C14.1667 15.0692 13.9075 13.7025 11.5108 10.3033C11.4351 10.194 11.3338 10.1048 11.2157 10.0435C11.0976 9.98218 10.9664 9.95067 10.8333 9.95167Z" fill="#2256CB"/>
<path d="M4.16667 9.66733C3.062 9.66601 2.00296 9.2266 1.22185 8.44548C0.440735 7.66437 0.00132321 6.60533 0 5.50066C0 4.45066 0.701667 3.1215 2.145 1.4365C2.39534 1.14546 2.70557 0.911898 3.05449 0.751788C3.4034 0.591677 3.78277 0.508789 4.16667 0.508789C4.55056 0.508789 4.92993 0.591677 5.27885 0.751788C5.62776 0.911898 5.93799 1.14546 6.18833 1.4365C7.63167 3.11983 8.33333 4.449 8.33333 5.50066C8.33201 6.60533 7.8926 7.66437 7.11148 8.44548C6.33037 9.2266 5.27133 9.66601 4.16667 9.66733ZM4.16667 2.16733C4.02275 2.16663 3.88046 2.19771 3.74995 2.25835C3.61944 2.319 3.50393 2.40771 3.41167 2.51816C1.7925 4.40816 1.66667 5.27733 1.66667 5.50066C1.66667 6.16371 1.93006 6.79959 2.3989 7.26843C2.86774 7.73727 3.50363 8.00066 4.16667 8.00066C4.82971 8.00066 5.46559 7.73727 5.93443 7.26843C6.40327 6.79959 6.66667 6.16371 6.66667 5.50066C6.66667 5.279 6.54083 4.40983 4.92167 2.52066C4.82972 2.40967 4.71434 2.32042 4.58379 2.25932C4.45325 2.19823 4.3108 2.16681 4.16667 2.16733Z" fill="#2256CB"/>
<path d="M16.25 8.80245C15.2558 8.80135 14.3026 8.40591 13.5996 7.70288C12.8965 6.99986 12.5011 6.04668 12.5 5.05245C12.5 4.14329 13.0833 2.96412 14.2883 1.44745C14.5242 1.154 14.8228 0.917199 15.1623 0.754494C15.5018 0.591788 15.8735 0.507324 16.25 0.507324C16.6265 0.507324 16.9982 0.591788 17.3377 0.754494C17.6772 0.917199 17.9758 1.154 18.2117 1.44745C19.4167 2.96412 20 4.14329 20 5.05245C19.9989 6.04668 19.6035 6.99986 18.9004 7.70288C18.1974 8.40591 17.2442 8.80135 16.25 8.80245ZM16.25 2.16579C16.1238 2.16558 15.9992 2.19406 15.8855 2.24906C15.7719 2.30406 15.6723 2.38415 15.5942 2.48329C14.2692 4.15329 14.1667 4.87162 14.1667 5.05245C14.1667 5.60499 14.3862 6.13489 14.7769 6.52559C15.1676 6.91629 15.6975 7.13579 16.25 7.13579C16.8025 7.13579 17.3324 6.91629 17.7231 6.52559C18.1138 6.13489 18.3333 5.60499 18.3333 5.05245C18.3333 4.87162 18.2308 4.15329 16.9058 2.48412C16.8278 2.38483 16.7282 2.30458 16.6146 2.24943C16.501 2.19428 16.3763 2.16568 16.25 2.16579Z" fill="#2256CB"/>
</g>
<defs>
<clipPath id="clip0_18580_4036">
<rect width="20" height="20" fill="white" transform="translate(0 0.5)"/>
</clipPath>
</defs>
</svg>
