<svg width="20" height="21" viewBox="0 0 20 21" fill="none" xmlns="http://www.w3.org/2000/svg">
<g clip-path="url(#clip0_18580_7770)">
<path d="M7.47083 20.5H3.33333C2.44928 20.5 1.60143 20.1488 0.976311 19.5237C0.35119 18.8986 0 18.0507 0 17.1667V13C0 12.1159 0.35119 11.2681 0.976311 10.643C1.60143 10.0179 2.44928 9.66667 3.33333 9.66667H10.7142C11.1652 9.66688 11.6085 9.78351 12.0012 10.0053C12.3939 10.227 12.7227 10.5464 12.9558 10.9325L15.6367 7.98667C15.8584 7.74282 16.126 7.54507 16.4242 7.40472C16.7225 7.26436 17.0454 7.18415 17.3746 7.16867C17.7039 7.15319 18.0329 7.20275 18.343 7.31451C18.653 7.42627 18.938 7.59804 19.1817 7.82C19.6678 8.26661 19.9591 8.88624 19.993 9.54552C20.0268 10.2048 19.8004 10.851 19.3625 11.345L13.6958 17.7092C12.9134 18.5867 11.9544 19.2889 10.8816 19.7699C9.80882 20.2509 8.6465 20.4997 7.47083 20.5ZM3.33333 11.3333C2.89131 11.3333 2.46738 11.5089 2.15482 11.8215C1.84226 12.134 1.66667 12.558 1.66667 13V17.1667C1.66667 17.6087 1.84226 18.0326 2.15482 18.3452C2.46738 18.6577 2.89131 18.8333 3.33333 18.8333H7.47083C8.41077 18.833 9.34001 18.6339 10.1977 18.2494C11.0553 17.8648 11.822 17.3033 12.4475 16.6017L18.1183 10.2367C18.2656 10.0708 18.3418 9.85379 18.3306 9.63231C18.3193 9.41083 18.2216 9.20261 18.0583 9.0525C17.8923 8.90327 17.6747 8.82465 17.4517 8.83333C17.3411 8.83801 17.2326 8.86466 17.1324 8.91174C17.0323 8.95881 16.9425 9.02536 16.8683 9.1075L13.18 13.1667C13.0181 13.6148 12.7375 14.0106 12.3682 14.3117C11.999 14.6129 11.5549 14.8082 11.0833 14.8767L6.7825 15.4917C6.5637 15.5231 6.34139 15.4662 6.16448 15.3337C5.98757 15.2012 5.87055 15.0038 5.83917 14.785C5.80778 14.5662 5.8646 14.3439 5.99713 14.167C6.12965 13.9901 6.32703 13.8731 6.54583 13.8417L10.8475 13.2275C11.0863 13.1941 11.3035 13.0714 11.4552 12.884C11.607 12.6966 11.682 12.4587 11.6651 12.2182C11.6481 11.9777 11.5405 11.7526 11.364 11.5883C11.1875 11.4241 10.9553 11.3329 10.7142 11.3333H3.33333ZM9.16667 8.06167C8.78897 8.06268 8.42228 7.93447 8.1275 7.69833C6.70083 6.55333 5 4.83333 5 3.16667C4.97954 2.48197 5.23107 1.81704 5.69957 1.3173C6.16807 0.817569 6.81541 0.52371 7.5 0.5C8.12278 0.502426 8.72031 0.746515 9.16667 1.18083C9.61302 0.746515 10.2105 0.502426 10.8333 0.5C11.5179 0.52371 12.1653 0.817569 12.6338 1.3173C13.1023 1.81704 13.3538 2.48197 13.3333 3.16667C13.3333 4.83333 11.6325 6.55333 10.205 7.69917C9.91033 7.93483 9.54398 8.06273 9.16667 8.06167ZM7.5 2.16667C7.25779 2.19097 7.03479 2.30935 6.87896 2.49635C6.72312 2.68336 6.64689 2.92405 6.66667 3.16667C6.66667 3.91667 7.62583 5.15833 9.17167 6.39917C10.7075 5.15833 11.6667 3.91667 11.6667 3.16667C11.6864 2.92405 11.6102 2.68336 11.4544 2.49635C11.2985 2.30935 11.0755 2.19097 10.8333 2.16667C10.5911 2.19097 10.3681 2.30935 10.2123 2.49635C10.0565 2.68336 9.98023 2.92405 10 3.16667C10 3.38768 9.9122 3.59964 9.75592 3.75592C9.59964 3.9122 9.38768 4 9.16667 4C8.94565 4 8.73369 3.9122 8.57741 3.75592C8.42113 3.59964 8.33333 3.38768 8.33333 3.16667C8.35311 2.92405 8.27688 2.68336 8.12104 2.49635C7.96521 2.30935 7.74221 2.19097 7.5 2.16667Z" fill="black"/>
</g>
<defs>
<clipPath id="clip0_18580_7770">
<rect width="20" height="20" fill="white" transform="translate(0 0.5)"/>
</clipPath>
</defs>
</svg>
