<svg width="20" height="21" viewBox="0 0 20 21" fill="none" xmlns="http://www.w3.org/2000/svg">
<g clip-path="url(#clip0_18580_6907)">
<path d="M11.61 3.83333C12.2879 3.834 12.9378 4.10357 13.4171 4.58289C13.8964 5.06222 14.166 5.71213 14.1667 6.39C14.1667 6.61101 14.2545 6.82298 14.4107 6.97926C14.567 7.13554 14.779 7.22333 15 7.22333C15.221 7.22333 15.433 7.13554 15.5892 6.97926C15.7455 6.82298 15.8333 6.61101 15.8333 6.39V6.33333C15.8333 6.3175 15.8333 6.30333 15.8333 6.2875C15.8055 5.18561 15.3484 4.13815 14.5595 3.36838C13.7706 2.59861 12.7122 2.1674 11.61 2.16667H10.8333V1.33333C10.8333 1.11232 10.7455 0.900358 10.5892 0.744078C10.433 0.587797 10.221 0.5 9.99999 0.5C9.77898 0.5 9.56701 0.587797 9.41073 0.744078C9.25445 0.900358 9.16666 1.11232 9.16666 1.33333V2.16667H8.38999C7.38775 2.16774 6.41856 2.52519 5.65565 3.17515C4.89274 3.8251 4.38583 4.72519 4.22553 5.71452C4.06524 6.70385 4.262 7.71795 4.78065 8.57555C5.2993 9.43315 6.10604 10.0784 7.05666 10.3958L9.16666 11.1V17.1667H8.38999C7.71212 17.166 7.06221 16.8964 6.58288 16.4171C6.10356 15.9378 5.83398 15.2879 5.83332 14.61C5.83332 14.389 5.74553 14.177 5.58925 14.0207C5.43296 13.8645 5.221 13.7767 4.99999 13.7767C4.77898 13.7767 4.56701 13.8645 4.41073 14.0207C4.25445 14.177 4.16666 14.389 4.16666 14.61V14.6667C4.16666 14.6825 4.16666 14.6967 4.16666 14.7125C4.19447 15.8144 4.65154 16.8618 5.44046 17.6316C6.22938 18.4014 7.28775 18.8326 8.38999 18.8333H9.16666V19.6667C9.16666 19.8877 9.25445 20.0996 9.41073 20.2559C9.56701 20.4122 9.77898 20.5 9.99999 20.5C10.221 20.5 10.433 20.4122 10.5892 20.2559C10.7455 20.0996 10.8333 19.8877 10.8333 19.6667V18.8333H11.61C12.6122 18.8323 13.5814 18.4748 14.3443 17.8249C15.1072 17.1749 15.6141 16.2748 15.7744 15.2855C15.9347 14.2961 15.738 13.2821 15.2193 12.4245C14.7007 11.5669 13.8939 10.9216 12.9433 10.6042L10.8333 9.9V3.83333H11.61ZM12.4183 12.1842C12.9945 12.3759 13.4836 12.7665 13.7981 13.286C14.1126 13.8055 14.2319 14.42 14.1346 15.0194C14.0374 15.6189 13.7299 16.1641 13.2673 16.5575C12.8048 16.951 12.2173 17.1669 11.61 17.1667H10.8333V11.6558L12.4183 12.1842ZM9.16666 9.34417L7.58332 8.81583C7.00727 8.62411 6.51825 8.23364 6.20377 7.71432C5.88929 7.195 5.76988 6.58071 5.86691 5.9814C5.96394 5.38208 6.27107 4.83685 6.73335 4.44329C7.19563 4.04972 7.78287 3.8335 8.38999 3.83333H9.16666V9.34417Z" fill="black"/>
</g>
<defs>
<clipPath id="clip0_18580_6907">
<rect width="20" height="20" fill="white" transform="translate(0 0.5)"/>
</clipPath>
</defs>
</svg>
