<svg width="20" height="21" viewBox="0 0 20 21" fill="none" xmlns="http://www.w3.org/2000/svg">
<path d="M3.33333 14.4999V10.0433C3.33333 9.59827 3.33333 9.37577 3.3875 9.16827C3.43547 8.98486 3.51438 8.81097 3.62083 8.6541C3.74167 8.4766 3.90917 8.3291 4.24417 8.0366L8.245 4.53493C8.86667 3.9916 9.1775 3.71993 9.52667 3.6166C9.835 3.52493 10.1642 3.52493 10.4725 3.6166C10.8225 3.71993 11.1342 3.9916 11.7558 4.5366L15.7558 8.0366C16.0917 8.32993 16.2583 8.4766 16.3792 8.65327C16.4858 8.81271 16.5636 8.98438 16.6125 9.16827C16.6667 9.37577 16.6667 9.59827 16.6667 10.0433V14.5033C16.6667 15.4349 16.6667 15.9008 16.485 16.2574C16.3249 16.5708 16.0696 16.8255 15.7558 16.9849C15.4 17.1666 14.9342 17.1666 14.0025 17.1666H5.9975C5.06583 17.1666 4.59917 17.1666 4.24333 16.9849C3.92987 16.8254 3.67493 16.5707 3.515 16.2574C3.33333 15.8999 3.33333 15.4333 3.33333 14.4999Z" stroke="#2256CB" stroke-width="1.66667" stroke-linecap="round" stroke-linejoin="round"/>
<path d="M7.5 14.6668L12.5 8.8335" stroke="#2256CB" stroke-width="1.66667" stroke-linecap="round" stroke-linejoin="round"/>
<circle cx="7.5" cy="9.66683" r="0.833333" fill="#2256CB"/>
<circle cx="12.5" cy="13.8333" r="0.833333" fill="#2256CB"/>
</svg>
