<svg width="20" height="21" viewBox="0 0 20 21" fill="none" xmlns="http://www.w3.org/2000/svg">
<g clip-path="url(#clip0_18580_6023)">
<path d="M10 0.5C8.02219 0.5 6.08879 1.08649 4.4443 2.1853C2.79981 3.28412 1.51809 4.8459 0.761209 6.67317C0.00433286 8.50043 -0.193701 10.5111 0.192152 12.4509C0.578004 14.3907 1.53041 16.1725 2.92894 17.5711C4.32746 18.9696 6.10929 19.922 8.0491 20.3079C9.98891 20.6937 11.9996 20.4957 13.8268 19.7388C15.6541 18.9819 17.2159 17.7002 18.3147 16.0557C19.4135 14.4112 20 12.4778 20 10.5C19.9971 7.84872 18.9426 5.30684 17.0679 3.4321C15.1932 1.55736 12.6513 0.502868 10 0.5V0.5ZM17.2058 6.33333H14.5217C13.9208 4.94082 13.1297 3.6384 12.1708 2.46333C14.2929 3.04077 16.1019 4.43122 17.2058 6.33333ZM13.75 10.5C13.7432 11.3484 13.6095 12.1911 13.3533 13H6.64667C6.39055 12.1911 6.25685 11.3484 6.25 10.5C6.25685 9.65155 6.39055 8.8089 6.64667 8H13.3533C13.6095 8.8089 13.7432 9.65155 13.75 10.5ZM7.315 14.6667H12.685C11.9777 16.0631 11.0735 17.3507 10 18.49C8.92615 17.351 8.02187 16.0634 7.315 14.6667ZM7.315 6.33333C8.02231 4.93689 8.92654 3.6493 10 2.51C11.0739 3.64898 11.9781 4.93663 12.685 6.33333H7.315ZM7.83334 2.46333C6.87305 3.63815 6.08049 4.94058 5.47834 6.33333H2.79417C3.89905 4.43036 5.70972 3.0398 7.83334 2.46333ZM2.05084 8H4.91667C4.70064 8.81595 4.58864 9.65595 4.58334 10.5C4.58864 11.3441 4.70064 12.184 4.91667 13H2.05084C1.53862 11.3727 1.53862 9.62731 2.05084 8ZM2.79417 14.6667H5.47834C6.08049 16.0594 6.87305 17.3618 7.83334 18.5367C5.70972 17.9602 3.89905 16.5696 2.79417 14.6667ZM12.1708 18.5367C13.1297 17.3616 13.9208 16.0592 14.5217 14.6667H17.2058C16.1019 16.5688 14.2929 17.9592 12.1708 18.5367ZM17.9492 13H15.0833C15.2994 12.184 15.4114 11.3441 15.4167 10.5C15.4114 9.65595 15.2994 8.81595 15.0833 8H17.9475C18.4597 9.62731 18.4597 11.3727 17.9475 13H17.9492Z" fill="#2256CB"/>
</g>
<defs>
<clipPath id="clip0_18580_6023">
<rect width="20" height="20" fill="white" transform="translate(0 0.5)"/>
</clipPath>
</defs>
</svg>
