<svg width="10" height="10" viewBox="0 0 10 10" fill="none" xmlns="http://www.w3.org/2000/svg">
<path d="M5 5.5288V2.70829M9.58334 4.99996C9.58334 6.21553 9.10045 7.38132 8.24091 8.24086C7.38137 9.10041 6.21558 9.58329 5 9.58329C3.78443 9.58329 2.61864 9.10041 1.7591 8.24086C0.899557 7.38132 0.416672 6.21553 0.416672 4.99996C0.416672 3.78438 0.899557 2.61859 1.7591 1.75905C2.61864 0.899511 3.78443 0.416626 5 0.416626C6.21558 0.416626 7.38137 0.899511 8.24091 1.75905C9.10045 2.61859 9.58334 3.78438 9.58334 4.99996Z" stroke="#F27A80" stroke-width="0.833333" stroke-linecap="round" stroke-linejoin="round"/>
<path d="M5.35259 7.11538C5.35259 7.20889 5.31544 7.29856 5.24933 7.36468C5.18321 7.4308 5.09353 7.46795 5.00003 7.46795C4.90652 7.46795 4.81684 7.4308 4.75072 7.36468C4.68461 7.29856 4.64746 7.20889 4.64746 7.11538C4.64746 7.02188 4.68461 6.9322 4.75072 6.86608C4.81684 6.79996 4.90652 6.76282 5.00003 6.76282C5.09353 6.76282 5.18321 6.79996 5.24933 6.86608C5.31544 6.9322 5.35259 7.02188 5.35259 7.11538Z" fill="#F27A80" stroke="#F27A80" stroke-width="0.3125"/>
</svg>
