<svg width="20" height="21" viewBox="0 0 20 21" fill="none" xmlns="http://www.w3.org/2000/svg">
<g clip-path="url(#clip0_18580_3004)">
<path d="M5.83333 12.1667C5.83333 12.3877 5.74554 12.5996 5.58926 12.7559C5.43297 12.9122 5.22101 13 5 13H4.16667C3.94565 13 3.73369 12.9122 3.57741 12.7559C3.42113 12.5996 3.33333 12.3877 3.33333 12.1667C3.33333 11.9457 3.42113 11.7337 3.57741 11.5774C3.73369 11.4211 3.94565 11.3333 4.16667 11.3333H5C5.22101 11.3333 5.43297 11.4211 5.58926 11.5774C5.74554 11.7337 5.83333 11.9457 5.83333 12.1667ZM9.16667 11.3333H8.33333C8.11232 11.3333 7.90036 11.4211 7.74408 11.5774C7.5878 11.7337 7.5 11.9457 7.5 12.1667C7.5 12.3877 7.5878 12.5996 7.74408 12.7559C7.90036 12.9122 8.11232 13 8.33333 13H9.16667C9.38768 13 9.59964 12.9122 9.75592 12.7559C9.9122 12.5996 10 12.3877 10 12.1667C10 11.9457 9.9122 11.7337 9.75592 11.5774C9.59964 11.4211 9.38768 11.3333 9.16667 11.3333ZM5 14.6667H4.16667C3.94565 14.6667 3.73369 14.7545 3.57741 14.9107C3.42113 15.067 3.33333 15.279 3.33333 15.5C3.33333 15.721 3.42113 15.933 3.57741 16.0893C3.73369 16.2455 3.94565 16.3333 4.16667 16.3333H5C5.22101 16.3333 5.43297 16.2455 5.58926 16.0893C5.74554 15.933 5.83333 15.721 5.83333 15.5C5.83333 15.279 5.74554 15.067 5.58926 14.9107C5.43297 14.7545 5.22101 14.6667 5 14.6667ZM9.16667 14.6667H8.33333C8.11232 14.6667 7.90036 14.7545 7.74408 14.9107C7.5878 15.067 7.5 15.279 7.5 15.5C7.5 15.721 7.5878 15.933 7.74408 16.0893C7.90036 16.2455 8.11232 16.3333 8.33333 16.3333H9.16667C9.38768 16.3333 9.59964 16.2455 9.75592 16.0893C9.9122 15.933 10 15.721 10 15.5C10 15.279 9.9122 15.067 9.75592 14.9107C9.59964 14.7545 9.38768 14.6667 9.16667 14.6667ZM5 4.66667H4.16667C3.94565 4.66667 3.73369 4.75446 3.57741 4.91074C3.42113 5.06702 3.33333 5.27899 3.33333 5.5C3.33333 5.72101 3.42113 5.93297 3.57741 6.08926C3.73369 6.24554 3.94565 6.33333 4.16667 6.33333H5C5.22101 6.33333 5.43297 6.24554 5.58926 6.08926C5.74554 5.93297 5.83333 5.72101 5.83333 5.5C5.83333 5.27899 5.74554 5.06702 5.58926 4.91074C5.43297 4.75446 5.22101 4.66667 5 4.66667ZM9.16667 4.66667H8.33333C8.11232 4.66667 7.90036 4.75446 7.74408 4.91074C7.5878 5.06702 7.5 5.27899 7.5 5.5C7.5 5.72101 7.5878 5.93297 7.74408 6.08926C7.90036 6.24554 8.11232 6.33333 8.33333 6.33333H9.16667C9.38768 6.33333 9.59964 6.24554 9.75592 6.08926C9.9122 5.93297 10 5.72101 10 5.5C10 5.27899 9.9122 5.06702 9.75592 4.91074C9.59964 4.75446 9.38768 4.66667 9.16667 4.66667ZM5 8H4.16667C3.94565 8 3.73369 8.0878 3.57741 8.24408C3.42113 8.40036 3.33333 8.61232 3.33333 8.83333C3.33333 9.05435 3.42113 9.26631 3.57741 9.42259C3.73369 9.57887 3.94565 9.66667 4.16667 9.66667H5C5.22101 9.66667 5.43297 9.57887 5.58926 9.42259C5.74554 9.26631 5.83333 9.05435 5.83333 8.83333C5.83333 8.61232 5.74554 8.40036 5.58926 8.24408C5.43297 8.0878 5.22101 8 5 8ZM9.16667 8H8.33333C8.11232 8 7.90036 8.0878 7.74408 8.24408C7.5878 8.40036 7.5 8.61232 7.5 8.83333C7.5 9.05435 7.5878 9.26631 7.74408 9.42259C7.90036 9.57887 8.11232 9.66667 8.33333 9.66667H9.16667C9.38768 9.66667 9.59964 9.57887 9.75592 9.42259C9.9122 9.26631 10 9.05435 10 8.83333C10 8.61232 9.9122 8.40036 9.75592 8.24408C9.59964 8.0878 9.38768 8 9.16667 8ZM20 8.83333V16.3333C19.9987 17.438 19.5593 18.497 18.7782 19.2782C17.997 20.0593 16.938 20.4987 15.8333 20.5H4.16667C3.062 20.4987 2.00296 20.0593 1.22185 19.2782C0.440735 18.497 0.00132321 17.438 0 16.3333L0 4.66667C0.00132321 3.562 0.440735 2.50296 1.22185 1.72185C2.00296 0.940735 3.062 0.501323 4.16667 0.5L9.16667 0.5C10.2713 0.501323 11.3304 0.940735 12.1115 1.72185C12.8926 2.50296 13.332 3.562 13.3333 4.66667H15.8333C16.938 4.66799 17.997 5.1074 18.7782 5.88852C19.5593 6.66963 19.9987 7.72867 20 8.83333ZM4.16667 18.8333H11.6667V4.66667C11.6667 4.00363 11.4033 3.36774 10.9344 2.8989C10.4656 2.43006 9.82971 2.16667 9.16667 2.16667H4.16667C3.50363 2.16667 2.86774 2.43006 2.3989 2.8989C1.93006 3.36774 1.66667 4.00363 1.66667 4.66667V16.3333C1.66667 16.9964 1.93006 17.6323 2.3989 18.1011C2.86774 18.5699 3.50363 18.8333 4.16667 18.8333ZM18.3333 8.83333C18.3333 8.17029 18.0699 7.53441 17.6011 7.06557C17.1323 6.59673 16.4964 6.33333 15.8333 6.33333H13.3333V18.8333H15.8333C16.4964 18.8333 17.1323 18.5699 17.6011 18.1011C18.0699 17.6323 18.3333 16.9964 18.3333 16.3333V8.83333ZM15.8333 11.3333C15.6685 11.3333 15.5074 11.3822 15.3704 11.4738C15.2333 11.5653 15.1265 11.6955 15.0634 11.8478C15.0004 12 14.9839 12.1676 15.016 12.3292C15.0482 12.4909 15.1275 12.6394 15.2441 12.7559C15.3606 12.8725 15.5091 12.9518 15.6708 12.984C15.8324 13.0161 16 12.9996 16.1522 12.9366C16.3045 12.8735 16.4347 12.7667 16.5262 12.6296C16.6178 12.4926 16.6667 12.3315 16.6667 12.1667C16.6667 11.9457 16.5789 11.7337 16.4226 11.5774C16.2663 11.4211 16.0543 11.3333 15.8333 11.3333ZM15.8333 14.6667C15.6685 14.6667 15.5074 14.7155 15.3704 14.8071C15.2333 14.8987 15.1265 15.0288 15.0634 15.1811C15.0004 15.3334 14.9839 15.5009 15.016 15.6626C15.0482 15.8242 15.1275 15.9727 15.2441 16.0893C15.3606 16.2058 15.5091 16.2852 15.6708 16.3173C15.8324 16.3495 16 16.333 16.1522 16.2699C16.3045 16.2068 16.4347 16.1 16.5262 15.963C16.6178 15.8259 16.6667 15.6648 16.6667 15.5C16.6667 15.279 16.5789 15.067 16.4226 14.9107C16.2663 14.7545 16.0543 14.6667 15.8333 14.6667ZM15.8333 8C15.6685 8 15.5074 8.04887 15.3704 8.14044C15.2333 8.23201 15.1265 8.36216 15.0634 8.51443C15.0004 8.6667 14.9839 8.83426 15.016 8.99591C15.0482 9.15756 15.1275 9.30604 15.2441 9.42259C15.3606 9.53913 15.5091 9.6185 15.6708 9.65065C15.8324 9.68281 16 9.66631 16.1522 9.60323C16.3045 9.54016 16.4347 9.43335 16.5262 9.29631C16.6178 9.15927 16.6667 8.99815 16.6667 8.83333C16.6667 8.61232 16.5789 8.40036 16.4226 8.24408C16.2663 8.0878 16.0543 8 15.8333 8Z" fill="#2256CB"/>
</g>
<defs>
<clipPath id="clip0_18580_3004">
<rect width="20" height="20" fill="white" transform="translate(0 0.5)"/>
</clipPath>
</defs>
</svg>
