<svg width="10" height="10" viewBox="0 0 10 10" fill="none" xmlns="http://www.w3.org/2000/svg">
<g clip-path="url(#clip0_18580_8175)">
<path d="M10 5C10 6.32608 9.47322 7.59785 8.53553 8.53553C7.59785 9.47322 6.32608 10 5 10C3.67392 10 2.40215 9.47322 1.46447 8.53553C0.526784 7.59785 0 6.32608 0 5C0 4.88949 0.0438987 4.78351 0.122039 4.70537C0.200179 4.62723 0.30616 4.58333 0.416667 4.58333C0.527174 4.58333 0.633154 4.62723 0.711294 4.70537C0.789435 4.78351 0.833333 4.88949 0.833333 5C0.833333 5.82409 1.0777 6.62967 1.53554 7.31488C1.99338 8.00008 2.64413 8.53413 3.40549 8.8495C4.16684 9.16486 5.00462 9.24738 5.81288 9.08661C6.62113 8.92583 7.36356 8.529 7.94628 7.94628C8.529 7.36356 8.92583 6.62113 9.08661 5.81288C9.24738 5.00462 9.16486 4.16684 8.8495 3.40549C8.53413 2.64413 8.00008 1.99338 7.31488 1.53554C6.62967 1.0777 5.82409 0.833333 5 0.833333C4.88949 0.833333 4.78351 0.789435 4.70537 0.711294C4.62723 0.633154 4.58333 0.527174 4.58333 0.416667C4.58333 0.30616 4.62723 0.200179 4.70537 0.122039C4.78351 0.0438987 4.88949 0 5 0C6.32564 0.00143378 7.59658 0.528678 8.53395 1.46605C9.47132 2.40342 9.99857 3.67436 10 5ZM4.28208 4.58333H3.33333C3.22283 4.58333 3.11685 4.62723 3.03871 4.70537C2.96057 4.78351 2.91667 4.88949 2.91667 5C2.91667 5.11051 2.96057 5.21649 3.03871 5.29463C3.11685 5.37277 3.22283 5.41667 3.33333 5.41667H4.28208C4.34572 5.52718 4.43393 5.62156 4.5399 5.6925C4.64587 5.76344 4.76674 5.80903 4.89316 5.82575C5.01959 5.84247 5.14816 5.82986 5.26892 5.78891C5.38969 5.74795 5.49941 5.67975 5.58958 5.58958C5.67975 5.49941 5.74795 5.38969 5.78891 5.26892C5.82986 5.14816 5.84247 5.01959 5.82575 4.89316C5.80903 4.76674 5.76344 4.64587 5.6925 4.5399C5.62156 4.43393 5.52718 4.34572 5.41667 4.28208V2.91667C5.41667 2.80616 5.37277 2.70018 5.29463 2.62204C5.21649 2.5439 5.11051 2.5 5 2.5C4.88949 2.5 4.78351 2.5439 4.70537 2.62204C4.62723 2.70018 4.58333 2.80616 4.58333 2.91667V4.28208C4.45851 4.3547 4.3547 4.45851 4.28208 4.58333ZM0.76125 3.66C0.843659 3.66 0.924217 3.63556 0.992738 3.58978C1.06126 3.544 1.11466 3.47892 1.1462 3.40278C1.17774 3.32665 1.18599 3.24287 1.16991 3.16205C1.15383 3.08122 1.11415 3.00698 1.05588 2.94871C0.997606 2.89043 0.923363 2.85075 0.842538 2.83467C0.761712 2.8186 0.677934 2.82685 0.601799 2.85838C0.525663 2.88992 0.460588 2.94333 0.414804 3.01185C0.36902 3.08037 0.344583 3.16092 0.344583 3.24333C0.344583 3.35384 0.388482 3.45982 0.466622 3.53796C0.544762 3.6161 0.650743 3.66 0.76125 3.66ZM1.75875 2.16958C1.84116 2.16958 1.92172 2.14515 1.99024 2.09936C2.05876 2.05358 2.11216 1.9885 2.1437 1.91237C2.17524 1.83623 2.18349 1.75245 2.16741 1.67163C2.15133 1.5908 2.11165 1.51656 2.05338 1.45829C1.99511 1.40002 1.92086 1.36033 1.84004 1.34426C1.75921 1.32818 1.67543 1.33643 1.5993 1.36797C1.52316 1.3995 1.45809 1.45291 1.4123 1.52143C1.36652 1.58995 1.34208 1.67051 1.34208 1.75292C1.34208 1.86342 1.38598 1.9694 1.46412 2.04754C1.54226 2.12568 1.64824 2.16958 1.75875 2.16958ZM3.24125 1.18375C3.32366 1.18375 3.40422 1.15931 3.47274 1.11353C3.54126 1.06775 3.59466 1.00267 3.6262 0.926535C3.65774 0.850399 3.66599 0.766621 3.64991 0.685796C3.63383 0.60497 3.59415 0.530727 3.53588 0.472456C3.47761 0.414184 3.40336 0.3745 3.32254 0.358423C3.24171 0.342346 3.15793 0.350597 3.0818 0.382134C3.00566 0.41367 2.94059 0.467075 2.8948 0.535596C2.84902 0.604116 2.82458 0.684674 2.82458 0.767083C2.82458 0.87759 2.86848 0.983571 2.94662 1.06171C3.02476 1.13985 3.13074 1.18375 3.24125 1.18375Z" fill="#FE9705"/>
</g>
<defs>
<clipPath id="clip0_18580_8175">
<rect width="10" height="10" fill="white"/>
</clipPath>
</defs>
</svg>
