<svg width="10" height="10" viewBox="0 0 10 10" fill="none" xmlns="http://www.w3.org/2000/svg">
<g clip-path="url(#clip0_18580_7714)">
<path d="M6.66667 0H3.33333C2.781 0.000661607 2.25148 0.220367 1.86092 0.610925C1.47037 1.00148 1.25066 1.531 1.25 2.08333V9.58333C1.25006 9.65912 1.27079 9.73345 1.30995 9.79833C1.34912 9.86322 1.40523 9.91619 1.47227 9.95155C1.5393 9.98691 1.6147 10.0033 1.69037 9.999C1.76603 9.99469 1.83908 9.96983 1.90167 9.92708L2.77917 9.3275L3.65667 9.92708C3.726 9.97456 3.80806 9.99996 3.89208 9.99996C3.97611 9.99996 4.05817 9.97456 4.1275 9.92708L5.0025 9.3275L5.8775 9.92708C5.94687 9.97465 6.02901 10.0001 6.11312 10.0001C6.19724 10.0001 6.27938 9.97465 6.34875 9.92708L7.22375 9.32792L8.09875 9.92667C8.1613 9.96928 8.23427 9.99405 8.30984 9.99831C8.3854 10.0026 8.4607 9.98619 8.52765 9.95089C8.5946 9.9156 8.65067 9.86273 8.68984 9.79798C8.72902 9.73322 8.74981 9.65902 8.75 9.58333V2.08333C8.74934 1.531 8.52963 1.00148 8.13907 0.610925C7.74852 0.220367 7.219 0.000661607 6.66667 0V0ZM7.91667 8.79167L7.45833 8.47833C7.38892 8.43068 7.3067 8.40517 7.2225 8.40517C7.1383 8.40517 7.05608 8.43068 6.98667 8.47833L6.11167 9.07792L5.23667 8.47833C5.1673 8.43077 5.08515 8.40531 5.00104 8.40531C4.91693 8.40531 4.83479 8.43077 4.76542 8.47833L3.89042 9.07792L3.01542 8.47833C2.94613 8.43095 2.86415 8.4056 2.78021 8.4056C2.69627 8.4056 2.61429 8.43095 2.545 8.47833L2.08333 8.79167V2.08333C2.08333 1.75181 2.21503 1.43387 2.44945 1.19945C2.68387 0.965029 3.00181 0.833333 3.33333 0.833333H6.66667C6.99819 0.833333 7.31613 0.965029 7.55055 1.19945C7.78497 1.43387 7.91667 1.75181 7.91667 2.08333V8.79167Z" fill="#ADADAD"/>
<path d="M6.66661 3.33356H3.33328C3.10316 3.33356 2.91661 3.5201 2.91661 3.75022C2.91661 3.98034 3.10316 4.16689 3.33328 4.16689H6.66661C6.89673 4.16689 7.08328 3.98034 7.08328 3.75022C7.08328 3.5201 6.89673 3.33356 6.66661 3.33356Z" fill="#ADADAD"/>
<path d="M5.83327 5H3.33328C3.10316 5 2.91661 5.18655 2.91661 5.41667C2.91661 5.64679 3.10316 5.83334 3.33328 5.83334H5.83327C6.06339 5.83334 6.24994 5.64679 6.24994 5.41667C6.24994 5.18655 6.06339 5 5.83327 5Z" fill="#ADADAD"/>
</g>
<defs>
<clipPath id="clip0_18580_7714">
<rect width="10" height="10" fill="white"/>
</clipPath>
</defs>
</svg>
