<svg width="20" height="21" viewBox="0 0 20 21" fill="none" xmlns="http://www.w3.org/2000/svg">
<g clip-path="url(#clip0_18580_8066)">
<path d="M16.6667 6.33333H15.2183C15.6895 5.918 16.0635 5.40407 16.3138 4.828C16.5641 4.25193 16.6846 3.62784 16.6667 3C16.6667 2.77899 16.5789 2.56702 16.4226 2.41074C16.2663 2.25446 16.0543 2.16667 15.8333 2.16667C15.6123 2.16667 15.4004 2.25446 15.2441 2.41074C15.0878 2.56702 15 2.77899 15 3C15 5.185 13.0242 5.94167 11.5217 6.20083C12.0762 5.21755 12.4101 4.12531 12.5 3C12.5 2.33696 12.2366 1.70107 11.7678 1.23223C11.2989 0.763392 10.663 0.5 10 0.5C9.33696 0.5 8.70107 0.763392 8.23223 1.23223C7.76339 1.70107 7.5 2.33696 7.5 3C7.58992 4.12531 7.92376 5.21755 8.47833 6.20083C6.97583 5.94167 5 5.185 5 3C5 2.77899 4.9122 2.56702 4.75592 2.41074C4.59964 2.25446 4.38768 2.16667 4.16667 2.16667C3.94565 2.16667 3.73369 2.25446 3.57741 2.41074C3.42113 2.56702 3.33333 2.77899 3.33333 3C3.31543 3.62784 3.4359 4.25193 3.6862 4.828C3.9365 5.40407 4.3105 5.918 4.78167 6.33333H3.33333C2.44928 6.33333 1.60143 6.68452 0.976311 7.30964C0.35119 7.93476 0 8.78261 0 9.66667L0 10.5C0 10.942 0.175595 11.3659 0.488155 11.6785C0.800716 11.9911 1.22464 12.1667 1.66667 12.1667V16.3333C1.66799 17.438 2.1074 18.497 2.88852 19.2782C3.66963 20.0593 4.72867 20.4987 5.83333 20.5H14.1667C15.2713 20.4987 16.3304 20.0593 17.1115 19.2782C17.8926 18.497 18.332 17.438 18.3333 16.3333V12.1667C18.7754 12.1667 19.1993 11.9911 19.5118 11.6785C19.8244 11.3659 20 10.942 20 10.5V9.66667C20 8.78261 19.6488 7.93476 19.0237 7.30964C18.3986 6.68452 17.5507 6.33333 16.6667 6.33333ZM10 2.16667C10.221 2.16667 10.433 2.25446 10.5893 2.41074C10.7455 2.56702 10.8333 2.77899 10.8333 3C10.7327 3.88569 10.4489 4.74076 10 5.51083C9.55106 4.74076 9.26726 3.88569 9.16667 3C9.16667 2.77899 9.25446 2.56702 9.41074 2.41074C9.56702 2.25446 9.77899 2.16667 10 2.16667ZM1.66667 9.66667C1.66667 9.22464 1.84226 8.80072 2.15482 8.48816C2.46738 8.17559 2.89131 8 3.33333 8H9.16667V10.5H1.66667V9.66667ZM3.33333 16.3333V12.1667H9.16667V18.8333H5.83333C5.17029 18.8333 4.53441 18.5699 4.06557 18.1011C3.59673 17.6323 3.33333 16.9964 3.33333 16.3333ZM16.6667 16.3333C16.6667 16.9964 16.4033 17.6323 15.9344 18.1011C15.4656 18.5699 14.8297 18.8333 14.1667 18.8333H10.8333V12.1667H16.6667V16.3333ZM10.8333 10.5V8H16.6667C17.1087 8 17.5326 8.17559 17.8452 8.48816C18.1577 8.80072 18.3333 9.22464 18.3333 9.66667V10.5H10.8333Z" fill="#2256CB"/>
</g>
<defs>
<clipPath id="clip0_18580_8066">
<rect width="20" height="20" fill="white" transform="translate(0 0.5)"/>
</clipPath>
</defs>
</svg>
