<svg width="13" height="14" viewBox="0 0 13 14" fill="none" xmlns="http://www.w3.org/2000/svg">
<path fill-rule="evenodd" clip-rule="evenodd" d="M9.22919 3.5H3.10419C2.86225 3.5 2.66669 3.30444 2.66669 3.0625C2.66669 2.821 2.86225 2.625 3.10419 2.625H9.22919C9.47112 2.625 9.66669 2.821 9.66669 3.0625C9.66669 3.30444 9.47112 3.5 9.22919 3.5ZM9.22919 6.11539H3.10419C2.86225 6.11539 2.66669 5.91895 2.66669 5.67789C2.66669 5.43595 2.86225 5.24039 3.10419 5.24039H9.22919C9.47112 5.24039 9.66669 5.43595 9.66669 5.67789C9.66669 5.91895 9.47112 6.11539 9.22919 6.11539ZM9.22919 8.75H3.10419C2.86225 8.75 2.66669 8.55444 2.66669 8.3125C2.66669 8.07056 2.86225 7.875 3.10419 7.875H9.22919C9.47112 7.875 9.66669 8.07056 9.66669 8.3125C9.66669 8.55444 9.47112 8.75 9.22919 8.75ZM10.5417 0H1.79169C0.825249 0 0.041687 0.783562 0.041687 1.75V14H0.858501L2.66669 12.6875L4.41669 14L6.16669 12.6875L7.91669 14L9.66669 12.6875L11.4753 14H12.2917V1.75C12.2917 0.783562 11.5081 0 10.5417 0Z" fill="#2256CB"/>
</svg>
