<svg width="12" height="12" viewBox="0 0 12 12" fill="none" xmlns="http://www.w3.org/2000/svg">
<path d="M5.99998 0.166626C9.21415 0.166626 11.8333 2.78579 11.8333 5.99996C11.8333 9.21413 9.21415 11.8333 5.99998 11.8333C2.78581 11.8333 0.166647 9.21413 0.166647 5.99996C0.166647 2.78579 2.78581 0.166626 5.99998 0.166626ZM4.95581 7.74996C4.78665 7.91913 4.78665 8.19913 4.95581 8.36829C5.04331 8.45579 5.15415 8.49663 5.26498 8.49663C5.37581 8.49663 5.48665 8.45579 5.57415 8.36829L7.63331 6.30913C7.80248 6.13996 7.80248 5.85996 7.63331 5.69079L5.57415 3.63163C5.40498 3.46246 5.12498 3.46246 4.95581 3.63163C4.78665 3.80079 4.78665 4.08079 4.95581 4.24996L6.70581 5.99996L4.95581 7.74996Z" fill="#2256CB"/>
</svg>
