<svg width="22" height="22" viewBox="0 0 22 22" fill="none" xmlns="http://www.w3.org/2000/svg">
<path d="M18.425 8.45165C16.7659 8.45165 16.0875 7.27832 16.9125 5.83915C17.3892 5.00498 17.105 3.94165 16.2709 3.46498L14.685 2.55748C13.9609 2.12665 13.0259 2.38332 12.595 3.10748L12.4942 3.28165C11.6692 4.72082 10.3125 4.72082 9.47837 3.28165L9.37754 3.10748C8.96504 2.38332 8.03004 2.12665 7.30587 2.55748L5.72004 3.46498C4.88587 3.94165 4.60171 5.01415 5.07837 5.84832C5.91254 7.27832 5.23421 8.45165 3.57504 8.45165C2.62171 8.45165 1.83337 9.23081 1.83337 10.1933V11.8066C1.83337 12.76 2.61254 13.5483 3.57504 13.5483C5.23421 13.5483 5.91254 14.7216 5.07837 16.1608C4.60171 16.995 4.88587 18.0583 5.72004 18.535L7.30587 19.4425C8.03004 19.8733 8.96504 19.6166 9.39587 18.8925L9.49671 18.7183C10.3217 17.2791 11.6784 17.2791 12.5125 18.7183L12.6134 18.8925C13.0442 19.6166 13.9792 19.8733 14.7034 19.4425L16.2892 18.535C17.1234 18.0583 17.4075 16.9858 16.9309 16.1608C16.0967 14.7216 16.775 13.5483 18.4342 13.5483C19.3875 13.5483 20.1759 12.7691 20.1759 11.8066V10.1933C20.1667 9.23998 19.3875 8.45165 18.425 8.45165ZM11 13.9791C9.35921 13.9791 8.02087 12.6408 8.02087 11C8.02087 9.35915 9.35921 8.02082 11 8.02082C12.6409 8.02082 13.9792 9.35915 13.9792 11C13.9792 12.6408 12.6409 13.9791 11 13.9791Z" fill="#2256CB"/>
</svg>
